<?xml version="1.0" encoding="UTF-8" standalone="no"?>
<!DOCTYPE svg PUBLIC "-//W3C//DTD SVG 20010904//EN"
              "http://www.w3.org/TR/2001/REC-SVG-20010904/DTD/svg10.dtd">

<svg xmlns="http://www.w3.org/2000/svg"
     width="208.892mm" height="208.892mm"
     viewBox="0 0 592 592">
  <path id="Selection"
        fill="none" stroke="black" stroke-width="1"
        d="M 22.00,107.44
           C 36.46,106.27 48.77,116.97 65.00,117.00
             65.00,117.00 135.00,117.00 135.00,117.00
             135.00,117.00 527.00,117.00 527.00,117.00
             529.80,117.00 532.23,117.07 535.00,116.48
             549.74,113.35 569.87,99.44 583.53,113.33
             589.72,119.61 592.54,130.44 590.47,139.00
             589.38,143.51 586.96,145.37 586.96,148.00
             586.96,151.21 590.33,152.89 590.91,160.00
             592.16,175.34 582.89,190.13 566.00,188.67
             551.73,187.44 542.37,179.02 527.00,179.00
             527.00,179.00 65.00,179.00 65.00,179.00
             49.43,179.02 35.44,189.67 23.00,188.68
             7.11,187.41 -0.70,173.96 1.18,159.00
             1.96,152.84 5.04,151.02 5.04,148.00
             5.04,144.98 1.96,143.16 1.18,137.00
             -0.13,126.60 3.95,114.11 14.00,109.41
             16.64,108.18 19.18,107.90 22.00,107.44 Z
           M 22.00,255.44
           C 36.46,254.27 48.77,264.97 65.00,265.00
             65.00,265.00 135.00,265.00 135.00,265.00
             135.00,265.00 527.00,265.00 527.00,265.00
             542.37,264.98 551.73,256.56 566.00,255.33
             582.89,253.87 592.16,268.66 590.91,284.00
             590.33,291.11 586.96,292.79 586.96,296.00
             586.96,298.63 589.38,300.49 590.47,305.00
             592.54,313.56 589.72,324.39 583.53,330.67
             569.87,344.56 549.74,330.65 535.00,327.52
             532.23,326.93 529.80,327.00 527.00,327.00
             527.00,327.00 65.00,327.00 65.00,327.00
             49.43,327.02 35.44,337.67 23.00,336.68
             7.11,335.41 -0.70,321.96 1.18,307.00
             1.96,300.84 5.04,299.02 5.04,296.00
             5.04,292.98 1.96,291.16 1.18,285.00
             -0.13,274.60 3.95,262.11 14.00,257.41
             16.64,256.18 19.18,255.90 22.00,255.44 Z
           M 22.00,403.44
           C 36.46,402.27 48.77,412.97 65.00,413.00
             65.00,413.00 135.00,413.00 135.00,413.00
             135.00,413.00 527.00,413.00 527.00,413.00
             542.37,412.98 551.73,404.56 566.00,403.33
             582.89,401.87 592.16,416.66 590.91,432.00
             590.33,439.11 586.96,440.79 586.96,444.00
             586.96,446.63 589.38,448.49 590.47,453.00
             592.54,461.56 589.72,472.39 583.53,478.67
             569.87,492.56 549.74,478.65 535.00,475.52
             532.23,474.93 529.80,475.00 527.00,475.00
             527.00,475.00 65.00,475.00 65.00,475.00
             49.43,475.02 35.44,485.67 23.00,484.68
             7.11,483.41 -0.70,469.96 1.18,455.00
             1.96,448.84 5.04,447.02 5.04,444.00
             5.04,440.98 1.96,439.16 1.18,433.00
             -0.13,422.60 3.95,410.11 14.00,405.41
             16.64,404.18 19.18,403.90 22.00,403.44 Z" />
</svg>
